<?xml version="1.0" standalone="no"?>
<!DOCTYPE svg PUBLIC "-//W3C//DTD SVG 20010904//EN"
 "http://www.w3.org/TR/2001/REC-SVG-20010904/DTD/svg10.dtd">
<svg version="1.0" xmlns="http://www.w3.org/2000/svg"
 width="256.000000pt" height="256.000000pt" viewBox="0 0 256.000000 256.000000"
 preserveAspectRatio="xMidYMid meet">

<g transform="translate(0.000000,256.000000) scale(0.100000,-0.100000)"
fill="#000000" stroke="none">
<path d="M1067 2425 c-474 -90 -850 -470 -932 -943 -19 -109 -19 -296 0 -404
83 -477 465 -859 944 -943 107 -19 295 -19 403 0 443 77 807 412 925 852 24
90 27 114 27 293 0 181 -2 202 -27 295 -109 403 -434 727 -834 832 -125 32
-380 41 -506 18z m502 -89 c380 -107 669 -403 772 -793 32 -119 37 -357 11
-483 -79 -381 -362 -699 -727 -818 -135 -44 -222 -55 -392 -49 -118 4 -167 10
-242 31 -309 86 -575 313 -707 602 -61 135 -85 240 -91 404 -8 219 23 365 118
550 154 300 416 499 759 575 47 11 112 14 235 11 146 -3 183 -7 264 -30z"/>
<path d="M1221 2092 c-30 -114 -58 -222 -63 -240 -5 -18 -13 -32 -18 -30 -4 2
-90 82 -191 178 -100 96 -179 166 -176 155 23 -75 119 -477 115 -481 -3 -2
-112 25 -244 60 -131 36 -240 64 -241 62 -2 -1 76 -86 172 -189 96 -102 175
-188 175 -190 0 -3 -107 -32 -237 -64 l-238 -58 295 -3 c333 -3 380 0 380 27
0 53 95 165 175 206 52 28 65 30 158 30 93 0 106 -2 150 -28 65 -37 87 -56
124 -104 12 -15 22 -32 23 -38 1 -5 9 -19 16 -30 8 -11 14 -27 14 -37 0 -26
51 -29 380 -26 l295 3 -230 59 c-126 32 -233 61 -237 65 -4 3 72 89 168 190
96 101 173 186 171 187 -1 2 -113 -26 -247 -61 -135 -35 -246 -62 -247 -61 -1
1 27 112 62 246 35 134 63 245 62 246 -1 2 -85 -76 -187 -172 -101 -96 -187
-174 -190 -174 -3 0 -32 105 -64 233 -32 127 -62 235 -65 239 -3 4 -30 -86
-60 -200z"/>
<path d="M2015 1073 c-38 -20 -36 -18 -29 -36 5 -14 9 -14 40 0 32 16 44 36
26 46 -4 3 -21 -2 -37 -10z"/>
<path d="M657 1062 c-10 -10 -17 -22 -17 -25 0 -12 35 -8 48 5 9 9 12 9 12 0
0 -7 12 -12 27 -12 l26 0 -23 25 c-28 30 -51 32 -73 7z"/>
<path d="M1527 1062 c-10 -10 -17 -22 -17 -25 0 -11 38 -8 46 4 4 8 9 8 17 0
6 -6 19 -11 29 -11 17 0 17 1 2 25 -19 30 -54 33 -77 7z"/>
<path d="M394 997 c-2 -7 -3 -62 -2 -123 3 -109 3 -109 28 -109 24 0 25 1 22
68 -1 37 1 67 5 67 5 0 26 -30 49 -67 27 -46 47 -69 62 -71 22 -3 22 -1 22
122 l0 126 -25 0 c-25 0 -25 -2 -25 -77 l0 -78 -46 78 c-32 55 -50 77 -65 77
-11 0 -22 -6 -25 -13z"/>
<path d="M630 885 l0 -125 60 0 60 0 0 30 c0 28 -3 30 -35 30 -28 0 -35 4 -35
20 0 16 7 20 35 20 30 0 35 3 35 24 0 21 -6 25 -32 28 -22 2 -34 9 -36 21 -3
14 4 17 32 17 33 0 36 2 36 30 l0 30 -60 0 -60 0 0 -125z"/>
<path d="M794 997 c-2 -7 -3 -62 -2 -123 3 -109 3 -109 28 -109 24 0 25 0 21
85 -1 47 1 81 6 77 4 -5 17 -43 29 -85 29 -106 49 -106 78 0 12 42 25 80 29
85 5 4 7 -30 5 -77 -3 -82 -2 -85 20 -88 22 -3 22 -2 22 122 l0 126 -34 0
c-33 0 -34 -1 -51 -67 -10 -38 -21 -74 -25 -82 -7 -13 -23 31 -45 122 -6 23
-12 27 -41 27 -19 0 -37 -6 -40 -13z"/>
<path d="M1168 1005 c-3 -3 11 -58 32 -123 35 -113 38 -117 65 -117 27 0 30 5
60 95 51 152 51 152 18 148 -25 -3 -29 -10 -50 -82 -12 -43 -24 -80 -26 -83
-2 -2 -14 35 -27 82 -20 74 -26 85 -45 85 -12 0 -24 -2 -27 -5z"/>
<path d="M1402 888 l3 -123 25 0 25 0 0 120 0 120 -28 3 -28 3 3 -123z"/>
<path d="M1505 997 c-3 -7 -4 -62 -3 -123 l3 -109 60 0 c57 0 60 1 60 25 0 21
-5 26 -32 28 -24 2 -33 8 -33 22 0 14 9 20 33 22 24 2 33 8 35 26 3 19 -1 22
-32 22 -29 0 -36 4 -36 19 0 15 8 21 33 23 27 2 32 7 32 28 0 23 -4 25 -58 28
-41 2 -59 -1 -62 -11z"/>
<path d="M1652 983 c2 -20 9 -29 26 -31 22 -3 23 -6 21 -95 l-2 -92 27 -3 26
-3 0 95 c0 91 1 95 23 98 16 2 22 10 22 28 0 24 -3 25 -73 28 l-73 3 3 -28z"/>
<path d="M1990 990 c-18 -34 -80 -201 -80 -216 0 -23 51 -18 57 6 4 16 14 20
48 20 34 0 44 -4 48 -20 6 -22 57 -29 57 -7 0 6 -19 63 -41 125 -32 86 -46
112 -60 112 -10 0 -23 -9 -29 -20z m44 -112 c6 -25 4 -28 -20 -28 -20 0 -25 4
-20 16 3 9 9 27 12 41 7 28 16 18 28 -29z"/>
<path d="M670 710 c0 -15 7 -20 25 -20 18 0 25 5 25 20 0 15 -7 20 -25 20 -18
0 -25 -5 -25 -20z"/>
<path d="M1540 710 c0 -15 7 -20 25 -20 18 0 25 5 25 20 0 15 -7 20 -25 20
-18 0 -25 -5 -25 -20z"/>
</g>
</svg>
